<?xml version="1.0" encoding="utf-8"?>
<!-- Generator: Adobe Illustrator 21.1.0, SVG Export Plug-In . SVG Version: 6.00 Build 0)  -->
<svg version="1.1" id="Layer_1" xmlns="http://www.w3.org/2000/svg" xmlns:xlink="http://www.w3.org/1999/xlink" x="0px" y="0px"
	 viewBox="0 0 432 288" style="enable-background:new 0 0 432 288;" xml:space="preserve">
<style type="text/css">
	.st0{fill:#FFFFFF;}
</style>
<g>
	<path class="st0" d="M122.6,36.8C122.6,36.8,122.6,36.8,122.6,36.8c-16.3-0.1-31.2,2.5-44.7,7.8c-13.4,5.2-25,12.6-34.7,22.2
		c-9.7,9.6-17.3,21.2-22.8,34.8c-5.3,13.2-8,27.8-8.2,43.7c0,0,0,0,0,0l38.7-0.4c0-0.1,0-0.2,0-0.4c0-10.4,1.7-20.1,5.1-29.1
		c3.4-9,8.3-16.9,14.5-23.7c6.3-6.8,13.8-12,22.5-15.9c8.7-3.8,18.5-5.7,29.2-5.7c0.1,0,0.1,0,0.2,0L122.6,36.8z"/>
	<path class="st0" d="M189.4,145.3C189.4,145.3,189.3,145.3,189.4,145.3c-0.2,11.3-1.8,21.8-5.2,31.4c-3.5,10-8.4,18.7-14.8,26
		s-14,13.1-23,17.2c-8.9,4.2-18.8,6.2-29.7,6.3c0,0,0,0,0,0l0,35.7c0,0,0,0,0,0c16.3-0.3,31.3-3.2,44.9-8.9
		c13.7-5.7,25.5-13.7,35.5-24c9.9-10.2,17.7-22.5,23.2-36.7c5.5-14.1,8.3-29.8,8.3-47c0,0,0,0,0,0H189.4z"/>
	<path class="st0" d="M302.8,20.9C302.8,20.9,302.7,20.9,302.8,20.9c-16.5-0.1-31.6,2.5-45.4,7.6c-13.6,5.1-25.3,12.3-35.2,21.7
		c-9.8,9.4-17.5,20.8-23.1,34.1c-5.4,12.9-8.1,27.2-8.3,42.8c0,0,0,0,0,0l39.3-0.3c0-0.1,0-0.2,0-0.3c0-10.2,1.7-19.6,5.2-28.5
		c3.5-8.8,8.4-16.5,14.8-23.2c6.4-6.6,14-11.8,22.8-15.5c8.8-3.7,18.7-5.6,29.7-5.6c0.1,0,0.1,0,0.2,0L302.8,20.9z"/>
	<path class="st0" d="M374.1,127.1C374.1,127.1,374.1,127.1,374.1,127.1c-0.2,11.3-1.9,21.7-5.4,31.2c-3.6,10-8.8,18.6-15.5,25.9
		c-6.7,7.3-14.7,13-24,17.2c-9.3,4.1-19.7,6.2-31.1,6.2c0,0,0,0,0,0l0,35.6c0,0,0,0,0,0c17.1-0.3,32.8-3.2,47-8.9
		c14.4-5.7,26.7-13.7,37.2-23.9c10.4-10.2,18.5-22.4,24.3-36.5c5.8-14.1,8.7-29.7,8.7-46.8c0,0,0,0,0,0H374.1z"/>
</g>
</svg>
